<svg width="67" height="67" viewBox="0 0 67 67" fill="none" xmlns="http://www.w3.org/2000/svg">
<path fill-rule="evenodd" clip-rule="evenodd" d="M0 0H67V67H0V0ZM33.5 16.75C42.7125 16.75 50.25 24.2875 50.25 33.5C50.25 41.875 44.1781 48.9937 35.8031 50.25V38.3156H39.7812L40.6187 33.5H36.0125V30.3594C36.0125 29.1031 36.6406 27.8469 38.7344 27.8469H40.8281V23.6594C40.8281 23.6594 38.9438 23.2406 37.0594 23.2406C33.2906 23.2406 30.7781 25.5437 30.7781 29.7312V33.5H26.5906V38.3156H30.7781V50.0406C22.8219 48.7844 16.75 41.875 16.75 33.5C16.75 24.2875 24.2875 16.75 33.5 16.75Z" fill="white"/>
</svg>
