<svg width="67" height="67" viewBox="0 0 67 67" fill="none" xmlns="http://www.w3.org/2000/svg">
<path d="M33.5 39.3625C30.3594 39.3625 27.6375 36.85 27.6375 33.5C27.6375 30.3594 30.15 27.6375 33.5 27.6375C36.6406 27.6375 39.3625 30.15 39.3625 33.5C39.3625 36.6406 36.6406 39.3625 33.5 39.3625Z" fill="white"/>
<path fill-rule="evenodd" clip-rule="evenodd" d="M40.6187 19.2625H26.3813C24.7063 19.4719 23.8688 19.6812 23.2406 19.8906C22.4031 20.1 21.775 20.5187 21.1469 21.1469C20.6498 21.6439 20.415 22.1409 20.1312 22.7417C20.0564 22.9 19.9779 23.066 19.8906 23.2406C19.8582 23.3378 19.8208 23.44 19.7807 23.5495C19.5617 24.1479 19.2625 24.9654 19.2625 26.3812V40.6187C19.4719 42.2937 19.6812 43.1312 19.8906 43.7594C20.1 44.5969 20.5188 45.225 21.1469 45.8531C21.6439 46.3501 22.1409 46.585 22.7417 46.8688C22.9002 46.9437 23.0658 47.022 23.2406 47.1094C23.3378 47.1418 23.44 47.1792 23.5495 47.2192C24.1479 47.4383 24.9654 47.7375 26.3813 47.7375H40.6187C42.2937 47.5281 43.1313 47.3187 43.7594 47.1094C44.5969 46.9 45.225 46.4812 45.8531 45.8531C46.3501 45.3561 46.585 44.8591 46.8688 44.2583C46.9437 44.0999 47.022 43.9341 47.1094 43.7594C47.1418 43.6622 47.1792 43.56 47.2193 43.4505C47.4383 42.8521 47.7375 42.0346 47.7375 40.6187V26.3812C47.5281 24.7062 47.3188 23.8687 47.1094 23.2406C46.9 22.4031 46.4812 21.775 45.8531 21.1469C45.3561 20.6498 44.8591 20.415 44.2583 20.1312C44.1001 20.0564 43.9339 19.9779 43.7594 19.8906C43.6622 19.8582 43.56 19.8208 43.4505 19.7807C42.8521 19.5617 42.0346 19.2625 40.6187 19.2625ZM33.5 24.4969C28.475 24.4969 24.4969 28.475 24.4969 33.5C24.4969 38.525 28.475 42.5031 33.5 42.5031C38.525 42.5031 42.5031 38.525 42.5031 33.5C42.5031 28.475 38.525 24.4969 33.5 24.4969ZM44.8062 24.2875C44.8062 25.4438 43.8688 26.3812 42.7125 26.3812C41.5562 26.3812 40.6187 25.4438 40.6187 24.2875C40.6187 23.1311 41.5562 22.1937 42.7125 22.1937C43.8688 22.1937 44.8062 23.1311 44.8062 24.2875Z" fill="white"/>
<path fill-rule="evenodd" clip-rule="evenodd" d="M0 0H67V67H0V0ZM26.3813 16.1219H40.6187C42.5031 16.3312 43.7594 16.5406 44.8062 16.9594C46.0625 17.5875 46.9 18.0062 47.9469 19.0531C48.9937 20.1 49.6219 21.1469 50.0406 22.1937C50.4594 23.2406 50.8781 24.4969 50.8781 26.3812V40.6187C50.6687 42.5031 50.4594 43.7594 50.0406 44.8062C49.4125 46.0625 48.9937 46.9 47.9469 47.9469C46.9 48.9937 45.8531 49.6219 44.8062 50.0406C43.7594 50.4594 42.5031 50.8781 40.6187 50.8781H26.3813C24.4969 50.6687 23.2406 50.4594 22.1938 50.0406C20.9375 49.4125 20.1 48.9937 19.0531 47.9469C18.0063 46.9 17.3781 45.8531 16.9594 44.8062C16.5406 43.7594 16.1219 42.5031 16.1219 40.6187V26.3812C16.3312 24.4969 16.5406 23.2406 16.9594 22.1937C17.5875 20.9375 18.0063 20.1 19.0531 19.0531C20.1 18.0062 21.1469 17.3781 22.1938 16.9594C23.2406 16.5406 24.4969 16.1219 26.3813 16.1219Z" fill="white"/>
</svg>
