<?xml version="1.0" encoding="UTF-8"?>
<svg id="Layer_2" data-name="Layer 2" xmlns="http://www.w3.org/2000/svg" viewBox="0 0 200 106.66">
  <defs>
    <style>
      .cls-1 {
        fill: #e4dfd8;
        stroke-width: 0px;
      }
    </style>
  </defs>
  <g id="Layer_2-2" data-name="Layer 2">
    <g>
      <g>
        <g>
          <g>
            <path class="cls-1" d="m95.65,61.92c-2.39-5.22-8.65-9.87-14.14-11.7-3.88-1.16-8.39-1.49-11.96-3.18-12.46-6.43-1.1-20.94,5.54-27.58.39-.34.58-1.03,1.12-1.07.91-.23,2.11-.78,3.04-1.11,1.21-.33,3.46,1.85,4.89,1.99.81.39,2.04.31,2.64.92-.52,3.13,1.26,5.4,3.95,6.69.38.29.51.08.66-.33.05-.25.44-.63.41-.84-.61-.22-3.85-5.47-3.05-5.65.91-.36,1.63-.67,2.09-.99.29-.19.58.26.29.45-.49.33-.92.51-1.97.95.76,1.54,1.78,3.77,3.11,4.95.23.45-.18.86-.38,1.31-.19.62-.76,1.11-1.41.61-2.73-1.34-4.73-3.69-4.24-6.93-2.26-.56-4.23-1.23-6.29-2.61-1.01-.23-2.8,1.08-3.71,1.1-6.26,6.56-18.95,21.12-6.47,27.64,5.49,2.47,11.55,1.9,16.87,5.49,3.07,1.92,9.41,6.52,9,9.87Z"/>
            <path class="cls-1" d="m95.88,63.37l-.59-1.29c-2.43-5.31-8.83-9.8-13.9-11.49-1.45-.43-3.04-.76-4.57-1.07-2.55-.52-5.18-1.06-7.43-2.12-3.31-1.71-5.22-4.1-5.69-7.11-.5-3.2.63-7.06,3.35-11.48,2.59-4.2,5.98-7.84,7.78-9.64.12-.11.21-.24.31-.39.23-.33.5-.73,1.02-.79.56-.15,1.24-.42,1.9-.68.38-.15.74-.29,1.07-.41h.03c.82-.24,1.85.37,2.94,1.01.76.45,1.54.91,2.1.96h.07s.06.04.06.04c.28.14.64.21,1.03.29.63.13,1.28.26,1.73.71l.14.14-.03.2c-.6,3.61,2.08,5.48,3.73,6.27l.06.03s.03-.07.05-.12c.04-.17.15-.33.25-.49.02-.03.04-.07.07-.1-.56-.54-1.33-1.78-1.69-2.36-.55-.91-1.46-2.54-1.42-3.25.02-.32.21-.49.39-.54.83-.33,1.56-.64,1.99-.94.2-.14.45-.15.66-.05.22.11.37.34.38.59.01.23-.1.45-.31.58-.45.3-.84.48-1.64.82l.04.08c.73,1.5,1.65,3.36,2.8,4.37l.06.05.03.07c.27.53,0,1-.21,1.35-.06.1-.11.19-.16.29-.16.51-.5.89-.92,1.02-.35.11-.73.04-1.08-.22-3.15-1.56-4.76-4.08-4.47-6.98-2.14-.55-4.01-1.22-6-2.53-.46-.06-1.2.28-1.86.57-.55.24-1.07.48-1.51.54-8.41,8.83-12.26,15.83-11.44,20.8.42,2.54,2.09,4.6,4.97,6.1,2.26,1.02,4.7,1.52,7.07,2.01,3.3.68,6.71,1.39,9.84,3.5,2.26,1.42,9.64,6.38,9.17,10.25l-.17,1.4Zm-4.97-44.17s0,0,0,0c0,0,0,0,0,0Z"/>
          </g>
          <g>
            <path class="cls-1" d="m94.03,70.28s-37.72-10.02-37.75-10.01c-.96-1.21,3.05-1.05,3.68-1.21,8.9-.52,17.96-.14,26.21,3.73,2.35.99,9.43,5.33,7.86,7.5Zm-37.07-10.38l36.78,9.76c-7.54-10.85-24.74-10.83-36.78-9.76Z"/>
            <path class="cls-1" d="m94.1,70.68c-.14,0-.37-.06-.79-.17-.4-.1-.99-.26-1.72-.45-1.47-.39-3.54-.94-5.95-1.58-4.83-1.28-11.01-2.93-16.47-4.38-6.52-1.73-12.19-3.24-12.9-3.43l-.15.03-.15-.19c-.16-.2-.22-.38-.23-.53l-1.07-.28,1.15-.1c.33-.64,1.59-.76,3.19-.86.35-.02.74-.04.85-.07h.08c14.47-.86,21.71,1.55,26.4,3.75,1.98.83,7.54,4.14,8.24,6.63.11.39.1.76-.02,1.09l.13.19-.19-.05c-.04.08-.08.15-.13.22-.07.12-.13.18-.26.18Zm-34.78-10.57l33.42,8.87c-5.64-7.13-16.6-10.04-33.42-8.87Zm32.83,6.98c.53.55,1.03,1.14,1.49,1.75-.29-.55-.82-1.15-1.49-1.75Z"/>
          </g>
          <g>
            <path class="cls-1" d="m94.03,70.17c-2.01-.19-3.69-1.49-5.33-2.52-9.61-5.84-20.58-8.15-31.73-7.14-1.21-.37-2.57.12-3.85.29-10.53,2.56-11.63.79-21.32-1.6-.18.05-.44-.24-.64-.19-.17.04-.65.19-.8.23-3.67,2.68-10.25,6.07-14.79,5.63-2-2.18,5.48-4.77,7.07-5.2,2.32-.82,5.04-1.55,7.62-.97.27-.07.51-.2.8-.22,11.47-7.19,16.38-20.6,25.11-30.55,2.52-3.79,9.13-3.6,10.87-8.06-1.18-1.02-1.75-1.76-.83-3.11.24-.49.67-1.6,1.25-1.41,1.08,1.02-.03,2.83.05,3.94.61,1.44,6.59-.62,8.04-.87,1.41-.31,1.34-.83,2.19-1.58,1.72-1.72,4.33-3.76,6.94-2.4,5.59,1.56,2.55,1.03,2.11,5.56,1.64.34,3.9-.37,4.52-1.52.36-4.16-5.14-5.85-8-7.29-6.92-2.31-14.51,1.7-21.37,2.03-.6-1.16,3.01-3,3.76-3.83,3.28-2.34,6.09-4.69,9.37-6.91,3.76-4.13,7.79-1,11.6,1.39,2.7,1.81,10.59,6.92,10.08,10.23-.19.17-.8,2.06-1.23,1.77-.48-.16.72-1.76.75-2-.24-3.21-7.09-7.68-9.88-9.55-4.56-2.63-6.68-5.29-11.32-1.31-4.13,3.45-8.72,6.12-12.68,9.83,7.65-1.18,16.45-5.21,23.72-.94,2.27,1.19,6.39,3.25,5.72,6.73-.79,1.59-3.3,2.26-5.29,1.89-.87-.32.62-3.94.97-4.6-5.14-1.98-6.55-2-10.27,2.33-.07.51-1.12.82-1.28.59-2.74.63-5.66,1.83-8.45,1.3-1.7,4.54-8.34,4.38-10.92,8.12-8.74,9.79-13.43,23.33-24.92,30.31,9.31,2.29,10.8,4.28,21.01,1.76,9.41-1.11,19.27-.95,28.12,2.92,3.08,1.23,6.16,2.59,8.98,4.45,4.14,3.24,8.16,2.22,6.51-3.55-3.12-8.53,5.06,5.57-2.25,6Zm-71.44-9.95c-1.8.73-6.65,2.07-6.83,4.16,4.76.18,10.08-2.8,14.05-5.32-2.65-.14-4.9.35-7.23,1.15Zm44.2-41.3l.17.16c.14-.94.58-2.25.33-3.15-.51.9-1.6,2.13-.5,2.98Z"/>
            <path class="cls-1" d="m94.02,70.57h-.03c-1.8-.17-3.29-1.14-4.73-2.08-.26-.17-.52-.34-.78-.5-9.29-5.65-20.18-8.1-31.48-7.08h-.08s-.07-.02-.07-.02c-.79-.24-1.66-.07-2.59.11-.35.07-.71.14-1.06.19-8.43,2.05-10.94,1.33-16.42-.24-1.42-.41-3.02-.87-4.99-1.35-.2,0-.36-.08-.48-.15-.03-.01-.07-.04-.09-.05-.11.03-.26.07-.4.12-.1.03-.19.06-.27.08-4.17,3.03-10.61,6.08-15,5.66h-.15s-.1-.13-.1-.13c-.5-.55-.49-1.09-.38-1.45.67-2.31,7.23-4.28,7.62-4.39,2.18-.77,5.02-1.58,7.73-1,.06-.02.11-.04.17-.06.15-.05.31-.11.5-.14,7.18-4.53,11.86-11.68,16.39-18.6,2.63-4.01,5.35-8.17,8.54-11.8,1.22-1.82,3.32-2.76,5.35-3.66,2.27-1.01,4.41-1.97,5.36-4.05-1.01-.91-1.73-1.88-.7-3.42.02-.04.04-.09.07-.15.28-.59.72-1.56,1.46-1.48l.02-.03v.04c.06,0,.12.02.17.04l.09.03.07.06c.88.84.59,2.05.36,3.02-.1.41-.19.8-.19,1.11.5.7,4.62-.4,6-.77.69-.18,1.24-.33,1.58-.39.84-.19,1.04-.43,1.37-.82.16-.19.34-.41.62-.66,1.01-1.01,4.13-4.12,7.36-2.47,2.38.66,3.24.95,3.51,1.54.2.43,0,.86-.27,1.41-.28.6-.66,1.39-.84,2.65,1.41.15,3.15-.45,3.69-1.31.21-3.17-3.38-4.8-6.27-6.1-.54-.24-1.04-.47-1.49-.7-4.29-1.42-8.94-.34-13.43.71-2.58.6-5.24,1.22-7.77,1.34h-.26s-.12-.22-.12-.22c0-.01-.01-.03-.02-.04l-.4.06.32-.3c-.2-1.03,1.33-2.11,2.69-3.07.53-.37,1.02-.72,1.22-.94l.07-.06c1.41-1,2.75-2.02,4.04-3.01,1.69-1.29,3.44-2.62,5.3-3.88,3.69-4,7.67-1.46,11.18.79.3.19.6.38.89.57l.4.27c5.14,3.44,10.33,7.36,9.86,10.36l-.02.14-.08.08c-.04.07-.14.27-.2.42-.37.82-.65,1.36-1.07,1.48-.15.04-.3.02-.43-.05-.14-.06-.24-.17-.29-.31-.15-.4.14-.95.61-1.73.08-.13.17-.28.21-.36-.33-2.92-6.71-7.17-9.45-9l-.25-.17c-.71-.41-1.37-.83-2.01-1.23-3.32-2.1-5.15-3.26-8.83-.11-1.78,1.49-3.66,2.85-5.49,4.16-2.06,1.49-4.19,3.02-6.16,4.74,1.43-.27,2.88-.62,4.41-.98,6.2-1.47,12.6-2.98,18.23.32l.13.07c2.27,1.18,6.49,3.39,5.77,7.08v.05s-.03.05-.03.05c-.71,1.43-3.04,2.61-5.72,2.1l-.06-.02c-.14-.05-.34-.18-.45-.46-.35-.94.58-3.31,1.01-4.29-4.69-1.78-5.92-1.7-9.36,2.3-.14.45-.64.73-1.06.83-.26.07-.49.07-.66,0-.58.14-1.16.3-1.77.47-2.09.57-4.24,1.17-6.37.86-1.07,2.42-3.49,3.5-5.83,4.55-2,.9-3.9,1.74-5,3.35l-.03.04c-3.21,3.59-5.92,7.78-8.54,11.82-4.33,6.69-8.81,13.59-15.67,18.06,1.65.42,3.04.83,4.29,1.2,5.16,1.51,7.76,2.27,15.62.33h.05c11.44-1.36,20.71-.39,28.33,2.94,2.8,1.12,6.07,2.53,9.04,4.48l.03.02c2.07,1.62,4.16,2.17,5.32,1.39,1-.67,1.2-2.27.56-4.5-1.03-2.81-.8-2.99-.58-3.16.15-.12.37-.13.54-.01.64.42,2.22,4.32,1.53,6.9-.29,1.09-1.11,2.41-3.34,2.55h-.03Zm-71.29-9.98c-.31.13-.7.27-1.15.43-1.79.64-4.67,1.68-5.3,2.97,4.05-.04,8.49-2.3,12.16-4.54-1.82.05-3.6.41-5.72,1.15Zm8.54-1.19s0,0,0,0c0,0,0,0,0,0Zm35.62-41.99c-.14.31-.2.55-.15.76.05-.25.11-.51.15-.76Z"/>
          </g>
          <g>
            <path class="cls-1" d="m2.11,43.76c-.63.04-2.41-.09-1.41-.62,23.43,1.22,38.87-18.71,56.97-30.46,2.93-2.11,6.5-4.42,8.73-6.99,1.99-2.39,5.49-5.34,8.43-3.17,4.59,1.76,9.03,3.89,13.44,6.19,4.47,2.08,4.78,3.19,6.89,7.42.21-.67.39-.89.62-1.33l.47.26c-.36.56-.75,1.41-.63,2.26,1.06,1.58,1.71,3.46,2.62,5.15.24.99,1.81,2.61,1.08,3.47-2.07,1.64-5.53,1.69-7.48,0,0-.19-.12-.59.06-.73,1.32-2.82,1.95-5.4,3.19-8.13-1.28-1.88-1.87-4.72-3.8-6.06-5.19-3.23-10.68-5.25-16.15-7.99-.57.16-.67-.24-1.19-.41-5-1.65-7.88,5.56-12.1,7.76C42.26,22.43,26.82,43.69,2.11,43.76Zm90.25-18.02c2.01,1.21,4.78,1.23,6.62-.23-.9-2.56-2.45-5.22-3.65-7.75-.98,2.72-1.99,5.18-2.98,7.98Z"/>
            <path class="cls-1" d="m1.79,44.17c-.57,0-1.62-.07-1.77-.61-.08-.3.08-.56.49-.77l.1-.05h.11c16.9.89,29.81-9.5,42.29-19.54,4.67-3.76,9.5-7.64,14.44-10.85.49-.36,1.02-.73,1.56-1.11,2.59-1.83,5.28-3.72,7.09-5.81.73-.87,2.22-2.49,3.98-3.39,1.83-.94,3.54-.89,4.95.13,4.11,1.58,8.38,3.55,13.43,6.19,4.29,1.99,4.89,3.2,6.67,6.8,0,0,0,0,0,0,.04-.08.09-.16.13-.24.05-.1.11-.2.17-.31l.19-.37,1.2.66-.23.36c-.31.48-.65,1.2-.58,1.9.64.98,1.14,2.07,1.63,3.13.3.66.61,1.34.95,1.97l.04.09c.07.28.3.68.52,1.07.53.92,1.13,1.97.48,2.75l-.06.06c-2.26,1.78-5.91,1.78-7.98,0l-.15-.13v-.2s0-.09,0-.14c-.03-.22-.07-.56.14-.8.66-1.43,1.16-2.82,1.64-4.17.43-1.2.87-2.44,1.42-3.69-.42-.66-.78-1.42-1.12-2.15-.64-1.39-1.31-2.82-2.46-3.62-3.33-2.07-6.72-3.61-10.32-5.25-1.85-.84-3.76-1.71-5.65-2.65-.44.07-.71-.12-.91-.26-.11-.08-.21-.15-.35-.19-2.92-.97-5.1,1.39-7.41,3.89-1.36,1.47-2.77,3-4.37,3.83-5.94,3.66-11.6,8.25-17.07,12.68-12.56,10.18-25.54,20.7-42.86,20.76-.05,0-.17,0-.32,0Zm91.05-18.61c1.82.95,4.11.88,5.66-.19-.6-1.63-1.46-3.31-2.29-4.94-.28-.54-.56-1.09-.83-1.64-.34.93-.69,1.83-1.03,2.71-.5,1.3-1.01,2.65-1.51,4.06Z"/>
          </g>
        </g>
        <g>
          <g>
            <path class="cls-1" d="m104.01,61.85c-.41-3.35,5.95-7.96,9-9.87,5.32-3.58,11.4-3.02,16.87-5.49,12.48-6.53-.2-21.07-6.47-27.64-.92-.02-2.7-1.33-3.71-1.1-2.06,1.37-4.03,2.04-6.29,2.61.5,3.24-1.51,5.6-4.24,6.93-.65.5-1.22.02-1.41-.61-.2-.45-.61-.86-.38-1.31,1.34-1.18,2.35-3.42,3.11-4.95-1.05-.45-1.48-.62-1.97-.95-.29-.18,0-.64.29-.45.46.31,1.19.62,2.09.99.8.18-2.42,5.39-3.05,5.65.06.32.43.82.56,1.16.18.31.3.1.51.01,2.69-1.29,4.46-3.57,3.95-6.69.6-.62,1.83-.53,2.64-.92,1.44-.15,3.68-2.31,4.89-1.99,1.43.72,3.3.73,4.16,2.18,6.63,6.64,18,21.16,5.54,27.58-3.57,1.68-8.09,2.02-11.96,3.18-5.49,1.83-11.74,6.48-14.14,11.7Z"/>
            <path class="cls-1" d="m103.78,63.29l-.17-1.4c-.48-3.88,6.91-8.83,9.18-10.26,3.12-2.1,6.54-2.81,9.84-3.49,2.36-.49,4.81-1,7.09-2.02,2.86-1.5,4.53-3.55,4.95-6.1,1.23-7.43-8.18-17.38-11.44-20.8-.44-.06-.97-.29-1.52-.54-.66-.29-1.4-.63-1.86-.57-1.99,1.31-3.86,1.97-6,2.53.29,2.89-1.32,5.42-4.47,6.98-.35.25-.73.33-1.08.21-.41-.13-.75-.51-.91-1.02-.04-.09-.1-.19-.16-.29-.2-.35-.48-.82-.21-1.35l.03-.07.06-.05c1.15-1.02,2.06-2.88,2.8-4.38l.04-.07c-.8-.34-1.19-.51-1.65-.82-.19-.12-.31-.33-.29-.57.01-.25.16-.48.38-.59.21-.11.45-.09.65.04.45.31,1.23.63,2,.94.23.07.37.26.39.53.07.97-2.1,4.6-3.1,5.61.05.11.12.24.19.34.07.12.14.25.2.37.02-.01.04-.02.07-.03,1.63-.78,4.3-2.65,3.7-6.26l-.03-.2.14-.14c.44-.45,1.09-.58,1.72-.71.38-.08.75-.15,1.03-.29l.06-.03h.07c.56-.06,1.35-.53,2.11-.97,1.08-.63,2.1-1.23,2.93-1.01l.08.03c.44.22.94.38,1.43.53,1.08.34,2.21.69,2.87,1.76,2.96,2.97,12.33,13.1,11.09,21.08-.47,3.01-2.38,5.4-5.68,7.1-2.26,1.07-4.9,1.61-7.44,2.13-1.54.31-3.13.64-4.59,1.08-5.05,1.69-11.46,6.18-13.89,11.49l-.59,1.28Zm4.95-44.18s0,0,0,0c0,0,0,0,0,0Z"/>
          </g>
          <g>
            <path class="cls-1" d="m131.27,20.57c-1.39-.42-5.65-1.14-7.55-1.8-.17.23-1.22-.08-1.28-.59-3.73-4.34-5.14-4.31-10.27-2.33.35.66,1.84,4.25.97,4.6-2,.37-4.49-.3-5.29-1.89-.68-3.48,3.45-5.55,5.72-6.73,7.27-4.27,16.07-.25,23.72.94-3.95-3.71-8.54-6.37-12.67-9.83-4.65-3.98-6.76-1.32-11.32,1.31-2.8,1.87-9.63,6.33-9.88,9.55.04.23,1.22,1.84.75,2-.43.31-1.03-1.62-1.23-1.77-.42-.96.27-1.87.93-2.48,2.62-3.42,5.49-5.35,9.15-7.74,3.8-2.39,7.85-5.52,11.6-1.39,4.33,3.1,8.55,6.19,12.74,9.61,2.36,2.68-4.36.21-5.28.16-6.13-1.32-13.18-3.25-18.8.39-1.79.8-7.16,4.33-4.1,6.65h0c.34.33,2.73,1.11,3.71.71-.22-1.23-.53-2.64-1.12-3.71-.26-.36-.14-.81.3-.91,2.11-.48,4.51-2.14,6.68-.98,1.72,1.07,3.05,2.03,4.14,3.55.58.76,10.41,1.96,8.4,2.68Zm-6.73-18.16h0,0Z"/>
            <path class="cls-1" d="m131.28,20.99l-.13-.04c-.56-.17-1.65-.4-2.8-.64-1.62-.34-3.44-.73-4.59-1.1-.17.06-.38.05-.63,0-.42-.11-.92-.38-1.06-.83-3.44-3.99-4.67-4.08-9.37-2.3.42.95,1.38,3.31,1.02,4.28-.11.29-.3.41-.44.47l-.07.02c-2.1.39-4.81-.28-5.72-2.1l-.02-.05v-.05c-.73-3.69,3.32-5.81,5.74-7.07l.17-.09c5.61-3.3,12.02-1.78,18.21-.31,1.52.36,2.98.71,4.41.98-1.97-1.72-4.09-3.25-6.16-4.74-1.82-1.31-3.71-2.67-5.49-4.16-3.68-3.15-5.51-2-8.83.1-.64.4-1.3.82-2.04,1.25l-.24.16c-2.73,1.82-9.09,6.06-9.44,8.98.04.08.13.22.2.34.47.8.77,1.35.62,1.76-.05.14-.15.25-.29.31-.13.08-.28.1-.43.06-.42-.11-.69-.65-1.05-1.46-.07-.15-.16-.36-.21-.44l-.05-.04-.04-.09c-.28-.64-.33-1.67,1-2.91,2.75-3.57,5.9-5.63,9.23-7.81.29-.18.58-.37.87-.55,3.53-2.26,7.53-4.82,11.21-.8,4.04,2.89,8.38,6.06,12.73,9.6l.05.05c.32.36.71.88.57,1.34l.28.27-.38-.06c-.45.64-1.83.4-4.7-.38-.59-.16-1.2-.33-1.38-.33h-.06c-.43-.1-.87-.2-1.32-.3-5.67-1.25-12.1-2.67-17.18.63l-.06.03c-1.52.67-4.57,2.75-4.78,4.5-.06.56.18,1.04.76,1.47l.04.03c.27.23,2.03.8,2.97.7-.2-1.05-.49-2.27-1-3.2-.2-.29-.25-.64-.13-.94.11-.29.36-.5.69-.57.56-.13,1.15-.35,1.78-.58,1.62-.6,3.45-1.28,5.17-.36,1.89,1.18,3.18,2.14,4.26,3.64.33.25,2.42.69,3.94,1.01,3.8.8,4.77,1.06,4.82,1.68.01.19-.07.46-.54.62l-.12.04Z"/>
          </g>
          <g>
            <path class="cls-1" d="m105.63,70.09c-7.28-.4.81-14.42-2.25-6-1.64,5.75,2.34,6.79,6.5,3.55,2.82-1.86,5.9-3.22,8.98-4.45,8.85-3.87,18.72-4.03,28.12-2.92,10.22,2.53,11.71.53,21.01-1.76-14.58-7.95-17.03-28.82-32.7-35.04-1.59-.64-2.01-2.11-3.4-2.71-.19-.08-1.03-.13-.89-.52.09-.42.8,0,1.03,0,1.52.52,1.88,2.09,3.51,2.75,2.75,1.33,6.12,2.42,7.94,4.86,8.73,9.94,13.64,23.36,25.11,30.55.29.03.54.16.8.22,2.58-.58,5.3.14,7.62.97,1.55.4,9.17,3.08,7.04,5.21-4.61.37-11.03-2.93-14.76-5.64-.15-.02-.64-.2-.8-.23-.18-.05-.46.24-.63.19-12.57,3.75-11.74,3.17-24.78,1.26-11.25-.82-22.39,1.19-32.11,7.2-1.65,1.03-3.32,2.33-5.33,2.51Zm64.21-11.11c3.98,2.51,9.31,5.52,14.07,5.31-1.05-3.28-10.65-5.6-14.07-5.31Zm-2.06-.34s0,0,0,0c0,0,0,0,0,0Z"/>
            <path class="cls-1" d="m105.64,70.49h-.03c-2.23-.13-3.05-1.44-3.34-2.52-.7-2.57.87-6.46,1.51-6.88.17-.11.39-.11.54.01.22.17.45.35-.56,3.12-.63,2.23-.43,3.83.57,4.5,1.15.77,3.23.23,5.31-1.39l.03-.02c2.96-1.95,6.24-3.36,9.05-4.49,7.61-3.33,16.88-4.29,28.32-2.95h.05c7.86,1.95,10.45,1.19,15.62-.32,1.24-.36,2.61-.77,4.24-1.19-6.5-3.9-10.59-10.42-14.55-16.74-4.69-7.49-9.13-14.57-17.25-17.79-.92-.37-1.49-.99-1.99-1.54-.43-.47-.84-.92-1.42-1.17-.03-.01-.09-.02-.15-.03-.32-.07-.75-.16-.92-.49-.08-.15-.09-.32-.04-.48.05-.17.15-.31.29-.39.31-.17.68-.05.97.06.06.02.15.05.18.06h.05s.04.02.04.02c.86.3,1.38.88,1.88,1.44.47.53.92,1.03,1.64,1.32h.02c.55.28,1.12.53,1.73.8,2.38,1.06,4.83,2.16,6.35,4.18,3.19,3.64,5.91,7.79,8.54,11.81,4.53,6.92,9.22,14.08,16.39,18.6.19.03.36.09.5.14.06.02.11.04.17.06,2.72-.58,5.56.22,7.73,1,.44.13,7.01,2.12,7.64,4.42.1.36.1.91-.44,1.45l-.1.1h-.15c-5.06.42-11.75-3.33-14.96-5.66-.09-.02-.2-.06-.35-.11-.1-.03-.25-.08-.32-.1-.03.01-.07.03-.1.05-.12.07-.29.14-.46.15-11.19,3.33-11.77,3.25-21.02,1.83-1.14-.17-2.41-.37-3.85-.58-12.05-.88-22.77,1.52-31.86,7.14-.26.16-.52.33-.78.5-1.44.93-2.93,1.9-4.72,2.07h-.03Zm65.61-11.11c3.66,2.22,8.06,4.46,12.04,4.52-.75-1.14-2.75-2.29-5.64-3.22-2.16-.7-4.61-1.18-6.4-1.29Zm-2.86-.06s0,0,0,0h0Zm-28.25-33.7c1.04.72,2.01,1.51,2.93,2.35-.76-.97-1.79-1.71-2.93-2.35Z"/>
          </g>
          <g>
            <path class="cls-1" d="m197.56,43.69c-24.71-.07-40.15-21.33-59.75-33.39-4.24-2.21-7.07-9.39-12.1-7.76-.59.18-.51.57-1.19.41-5.46,2.74-10.97,4.76-16.14,7.99-1.94,1.34-2.49,4.17-3.8,6.05,1.22,2.73,1.87,5.32,3.19,8.15.18.12.05.55.06.73-1.95,1.68-5.4,1.63-7.48,0-.73-.86.85-2.5,1.08-3.47.9-1.69,1.56-3.57,2.62-5.15.12-.84-.27-1.69-.63-2.26l.47-.26c.23.45.41.66.62,1.33,2.13-4.26,2.4-5.32,6.89-7.42,4.4-2.3,8.86-4.43,13.44-6.19,5.55-3.13,8.81,5.04,13.27,7.42,19.7,12.07,35.79,34.26,60.86,33.21,1.07.6-1.02.63-1.4.62Zm-93.23-25.99c-1.2,2.53-2.75,5.19-3.65,7.75,1.84,1.46,4.61,1.43,6.62.23-.98-2.8-2-5.26-2.98-7.98Z"/>
            <path class="cls-1" d="m197.71,44.09c-.05,0-.1,0-.16,0-17.33-.05-30.31-10.58-42.87-20.76-5.47-4.44-11.13-9.02-17.08-12.68-1.62-.85-3.02-2.37-4.38-3.84-2.29-2.49-4.46-4.84-7.4-3.88-.17.05-.25.11-.35.2-.22.18-.45.32-.91.25-1.89.94-3.8,1.81-5.65,2.65-3.6,1.63-7,3.18-10.34,5.26-1.12.78-1.78,2.19-2.41,3.56-.35.75-.71,1.52-1.15,2.19.54,1.24.98,2.46,1.4,3.65.49,1.36.99,2.77,1.66,4.22.21.24.17.59.14.82,0,.05-.01.1-.01.13v.19s-.14.14-.14.14c-2.07,1.78-5.73,1.78-7.98,0l-.06-.05c-.66-.78-.03-1.88.48-2.76.22-.39.46-.79.52-1.07l.04-.09c.34-.64.65-1.32.96-1.98.48-1.05.98-2.14,1.63-3.13.07-.75-.33-1.51-.58-1.9l-.23-.36,1.2-.66.19.37c.06.12.12.22.17.32.04.08.09.15.13.23,0-.02.02-.04.03-.06,1.76-3.55,2.35-4.75,6.66-6.76,5.04-2.64,9.32-4.61,13.44-6.19,3.92-2.19,6.73.83,9.46,3.74,1.33,1.43,2.71,2.91,4.17,3.68,5.95,3.64,11.63,8.25,17.13,12.72,12.84,10.41,26.13,21.18,43.52,20.44h.11s.1.05.1.05c.4.23.56.49.49.78-.05.18-.16.59-1.93.59Zm1.2-.58h0Zm-97.75-18.21c1.55,1.07,3.84,1.14,5.66.19-.5-1.41-1.01-2.75-1.51-4.05-.34-.89-.69-1.79-1.03-2.72-.27.55-.55,1.1-.83,1.64-.83,1.63-1.69,3.32-2.29,4.95Z"/>
          </g>
        </g>
      </g>
      <g>
        <path class="cls-1" d="m15.59,96.94c0,3.68-3.83,4.44-6.24,4.44H2.01v-.37l1.45-.35v-13.05c-.42-.38-.92-.57-1.43-.63l-.02-.49h7.34c2.7,0,5.1.77,5.1,3.31,0,1.76-1.13,2.76-2.55,3.31,1.84.35,3.69,1.33,3.69,3.84Zm-4.53-6.97c0-1.84-1.13-2.95-3.92-2.94h-.37v6.11h1.2c2.14,0,3.09-1.47,3.09-3.17h0Zm-2.17,10.85c2.38,0,3.3-1.93,3.3-3.77s-.9-3.33-4.1-3.33h-1.32v6.53c.5.28,1.22.56,2.12.56h0Z"/>
        <path class="cls-1" d="m27.64,91.94l-1.15.3-3.81,9.22-.46,1.07c-1.37,3.16-2.09,4.13-3.14,4.13s-2.53-.99-1.29-3.21c0,0,.49.98,1.71.98.99,0,1.72-.65,2.32-2.05l.4-.93h-.64l-3.68-7.8c-.66-1.37-.85-1.55-1.45-1.64l-.02-.43c1.54.08,3.65.08,5.25,0v.3l-1.1.26,2.82,6.44,1.6-4.05c.56-1.42.08-2.37-1.1-2.54l-.03-.4c1.27.08,2.54.08,3.82,0l-.05.34Z"/>
        <path class="cls-1" d="m49.96,101.38c-1.57-.08-4.57-.08-6.21,0v-.36l1.45-.35v-6.7s-5.85,0-5.85,0v6.3c.42.38.92.56,1.43.63l.02.49c-1.57-.08-4.57-.08-6.21,0v-.36l1.45-.35v-13.05c-.42-.38-.92-.57-1.43-.63l-.02-.49c1.57.09,4.57.09,6.21,0v.36l-1.45.35v6.17h5.85v-5.77c-.42-.38-.93-.57-1.43-.63l-.02-.49c1.57.09,4.57.09,6.21,0v.36l-1.45.35v13.06c.42.38.92.56,1.43.63l.02.49Z"/>
        <path class="cls-1" d="m62.18,100.2c-.75,1.04-1.47,1.42-2.32,1.42-1.12,0-2.16-.73-2.13-2.17l.05-3.21v-.03c-1.99.09-3,.89-3,2.2,0,1.21.83,1.97,1.64,1.96.6-.01,1.03-.46,1.03-.46l.12.24c-1.05,1.05-1.91,1.47-2.85,1.47-1.62,0-2.74-1.23-2.74-2.72,0-1.95,1.97-2.93,5.81-3,.01-2.3-.24-4.26-1.51-4.26-.89,0-1.74.94-.89,2.96-1.48,1.22-2.72.21-2.72-.99,0-1.52,1.96-2.25,4.3-2.25,3.22,0,3.96,1.21,3.87,4.17l-.1,3.1c-.06,1.89.75,1.83,1.27,1.37l.18.2Z"/>
        <path class="cls-1" d="m67.97,100.31c.24.41.65.65,1.19.65l.02.43c-1.62-.13-3.77-.11-5.4,0v-.3l1.17-.27v-8.38c-.29-.23-.68-.36-1.15-.37v-.34c1.53-.02,3.15-.15,4.06-.32l.11.11v8.8Zm7.92,1.07c-1.62-.13-3.77-.11-5.4,0v-.3l1.17-.27v-5.02c0-2.33-.45-2.92-1.41-2.92s-1.71.62-1.71.62l-.15-.19s1.52-1.93,3.71-1.93c1.9,0,2.58,1.46,2.58,3.65v5.29c.23.41.65.65,1.19.65l.02.43Z"/>
        <path class="cls-1" d="m87.6,100.35c.29.23.68.36,1.15.37v.34c-1.24.02-2.69.14-3.64.32l-.53-.69v-6.67c-.49-1.31-1.23-2.36-2.25-2.36-.97,0-1.73.99-1.73,3.43,0,3.02.64,5.14,2.15,5.14.65,0,1.3-.4,1.3-.4l.11.17s-1.37,1.62-3.3,1.62c-2.38,0-3.49-2.41-3.49-4.86,0-3.34,2.02-5.39,5.17-5.39.76,0,1.43.09,2.04.28v-4.96c-.29-.23-.69-.36-1.15-.37v-.34c1.53-.02,3.15-.15,4.06-.32l.11.11v14.58Z"/>
        <path class="cls-1" d="m110.29,101.38c-1.98-.09-3.96-.09-5.93,0v-.38l1.31-.23-1.72-5.06h-4.82l-1.41,4.62c.39.34.82.52,1.25.57l.02.49c-1.03-.08-2.4-.08-3.42,0v-.36l1.32-.35,4.1-13.41-.26-.76h3.63l4.4,12.98c.33.98.75,1.26,1.51,1.39l.02.51Zm-10.98-6.27h4.43l-2.34-6.86-2.1,6.86Z"/>
        <path class="cls-1" d="m115.1,100.31c.24.41.65.65,1.19.65l.02.43c-1.62-.13-3.77-.11-5.4,0v-.3l1.17-.27v-8.38c-.29-.23-.68-.36-1.15-.37v-.34c1.53-.02,3.15-.15,4.06-.32l.11.11v8.8Zm7.92,1.07c-1.62-.13-3.77-.11-5.4,0v-.3l1.17-.27v-5.02c0-2.33-.45-2.92-1.41-2.92s-1.71.62-1.71.62l-.15-.19s1.52-1.93,3.71-1.93c1.9,0,2.58,1.46,2.58,3.65v5.29c.23.41.65.65,1.19.65l.02.43Z"/>
        <path class="cls-1" d="m134.73,100.35c.29.23.68.36,1.15.37v.34c-1.24.02-2.69.14-3.64.32l-.53-.69v-6.67c-.49-1.31-1.23-2.36-2.25-2.36-.97,0-1.73.99-1.73,3.43,0,3.02.64,5.14,2.15,5.14.65,0,1.3-.4,1.3-.4l.11.17s-1.37,1.62-3.3,1.62c-2.38,0-3.49-2.41-3.49-4.86,0-3.34,2.02-5.39,5.17-5.39.76,0,1.43.09,2.04.28v-4.96c-.29-.23-.69-.36-1.15-.37v-.34c1.53-.02,3.15-.15,4.06-.32l.11.11v14.58Z"/>
        <path class="cls-1" d="m158.91,101.38c-1.57-.08-4.57-.08-6.21,0v-.36l1.45-.35v-6.7s-5.85,0-5.85,0v6.3c.42.38.92.56,1.43.63l.02.49c-1.57-.08-4.57-.08-6.21,0v-.36l1.45-.35v-13.05c-.42-.38-.92-.57-1.43-.63l-.02-.49c1.57.09,4.57.09,6.21,0v.36l-1.45.35v6.17h5.85v-5.77c-.42-.38-.93-.57-1.43-.63l-.02-.49c1.57.09,4.57.09,6.21,0v.36l-1.45.35v13.06c.42.38.92.56,1.43.63l.02.49Z"/>
        <path class="cls-1" d="m167.39,99.76c1.34,0,2.26-.77,2.26-.77l.17.16c-1.18,1.49-2.94,2.47-4.7,2.47-2.51,0-4.62-1.98-4.62-4.89s2.04-5.36,5.15-5.36c2.14,0,4.42,1.21,4.45,3.89l-6.13.49-.04-.28,3.18-.41c-.08-1.77-1.05-3.42-2.14-3.38-1.01.04-1.36,1.48-1.36,2.92,0,3.06,1.55,5.17,3.79,5.17h0Z"/>
        <path class="cls-1" d="m181.79,100.2c-.75,1.04-1.47,1.42-2.32,1.42-1.12,0-2.16-.73-2.13-2.17l.05-3.21v-.03c-1.99.09-3,.89-3,2.2,0,1.21.83,1.97,1.64,1.96.6-.01,1.03-.46,1.03-.46l.12.24c-1.05,1.05-1.91,1.47-2.85,1.47-1.62,0-2.74-1.23-2.74-2.72,0-1.95,1.97-2.93,5.81-3,.01-2.3-.24-4.26-1.51-4.26-.89,0-1.74.94-.89,2.96-1.48,1.22-2.72.21-2.72-.99,0-1.52,1.96-2.25,4.3-2.25,3.22,0,3.96,1.21,3.87,4.17l-.1,3.1c-.06,1.89.75,1.83,1.27,1.37l.18.2Z"/>
        <path class="cls-1" d="m187.57,100.31c.24.41.65.65,1.19.65l.02.43c-1.62-.13-3.77-.11-5.4,0v-.3l1.17-.27v-8.38c-.29-.23-.68-.36-1.15-.37v-.34c1.53-.02,3.15-.15,4.06-.32l.11.11v8.8Zm3.02-8.98c1.08,0,1.8.88,1.8,1.8s-.72,1.85-1.85,1.85c-.24,0-.54-.04-.78-.14.45-1.14-.08-1.98-.7-1.69-.34.16-.82.7-1.03,1.79l-.19-.05c.35-2.02,1.31-3.57,2.76-3.57h0Z"/>
        <path class="cls-1" d="m200,99.61c-1.11,1.37-2.17,2-3.35,2-1.65,0-2.41-1.04-2.41-3.3v-6.22h-.88v-.51c1.52-.49,2.56-1.39,3.64-3.15l.4.13v2.85l1.94.17v.51h-1.94v5.67c0,1.41.33,2.14,1.21,2.14.59,0,1.22-.47,1.22-.47l.17.17Z"/>
      </g>
    </g>
  </g>
</svg>