<?xml version="1.0" encoding="UTF-8"?>
<svg id="Layer_2" data-name="Layer 2" xmlns="http://www.w3.org/2000/svg" viewBox="0 0 200 288.25">
  <defs>
    <style>
      .cls-1 {
        fill: #e5c8a1;
        stroke-width: 0px;
      }
    </style>
  </defs>
  <g id="Layer_1-2" data-name="Layer 1">
    <path class="cls-1" d="m185.4,153c-.35-2.14-53.92,20.21-70.39,26.57-2.51-39.59-6.53-79.23-8.49-118.1h-.28s-.28.03-.28.03l-.03,7.09c1.21,36.73.45,74.41,1.02,111.94-14.73-3.69-73.68-20.73-74.59-18.77C34.06,119.48,21.35,55.57,0,11.77c22.06,48.48,24.09,103.65,27.11,155.69l2.38.59,77.53,18.16c.65,34.48,2.54,68.78,8.23,102.04,2.93-33.81,2.17-68.26.12-102.8l73.41-27.03s1.45-.55,2.14-.8c-2.98-51.99-7.26-106.97,9.08-157.62-16.24,46.51-20.82,109.76-14.6,153Z"/>
  </g>
</svg>